<svg xmlns="http://www.w3.org/2000/svg" width="180" height="48" viewBox="0 0 180 48" role="img" aria-labelledby="title">
  <title id="title">Google</title>
  <rect width="180" height="48" rx="12" fill="#ffffff" stroke="#dbe7f5"/>
  <g transform="translate(36 12) scale(0.9)">
    <path d="M26.772 13.052c0-.728-.065-1.433-.187-2.112H13.6v4.007h7.378c-.318 1.716-1.276 3.17-2.722 4.149v3.448h4.402c2.576-2.374 4.114-5.873 4.114-9.492z" fill="#4285f4"/>
    <path d="M13.6 26.8c3.51 0 6.457-1.154 8.609-3.123l-4.402-3.448c-1.226.82-2.796 1.3-4.207 1.3-3.237 0-5.988-2.185-6.968-5.124H2.107v3.609C4.244 24.03 8.616 26.8 13.6 26.8z" fill="#34a853"/>
    <path d="M6.632 16.406a7.439 7.439 0 0 1 0-4.812V8H2.107a13.202 13.202 0 0 0 0 12h4.525z" fill="#fbbc04"/>
    <path d="M13.6 7.2a7.43 7.43 0 0 1 5.25 2.058l3.918-3.918C21.806 3.176 19.04 2 13.6 2 8.616 2 4.244 4.77 2.107 9.194l4.525 3.594C7.612 9.385 10.363 7.2 13.6 7.2z" fill="#ea4335"/>
    <path d="M35.58 4.4c-2.663 0-4.73 1.984-4.73 4.58s2.067 4.58 4.73 4.58 4.73-1.984 4.73-4.58S38.243 4.4 35.58 4.4zm0 7.422c-1.48 0-2.506-1.144-2.506-2.842 0-1.698 1.026-2.842 2.506-2.842s2.506 1.144 2.506 2.842c0 1.698-1.026 2.842-2.506 2.842z" fill="#202124"/>
    <path d="M50.694 4.4c-2.663 0-4.73 1.984-4.73 4.58s2.067 4.58 4.73 4.58c1.476 0 2.547-.542 3.304-1.421l-1.517-1.421c-.405.454-1.029.742-1.787.742-1.169 0-2.144-.79-2.464-1.888h6.01c.084-.304.134-.626.134-.991 0-2.596-1.908-4.581-4.68-4.581zm-2.274 3.793c.302-1.102 1.169-1.888 2.274-1.888 1.169 0 2.027.795 2.274 1.888h-4.548z" fill="#202124"/>
    <path d="M61.928 4.4c-1.451 0-2.685.602-3.393 1.59V4.616H56.3v12.72h2.235v-4.563c.707.988 1.942 1.59 3.393 1.59 2.662 0 4.73-1.984 4.73-4.58 0-2.596-2.067-4.58-4.73-4.58zm-.462 7.422c-1.48 0-2.506-1.144-2.506-2.842 0-1.698 1.026-2.842 2.506-2.842s2.506 1.144 2.506 2.842c0 1.698-1.026 2.842-2.506 2.842z" fill="#202124"/>
  </g>
</svg>
