<svg width="48" height="48" viewBox="0 0 24 24" xmlns="http://www.w3.org/2000/svg" aria-hidden="true">
  <path d="M23.49 12.27c0-.86-.07-1.7-.21-2.5H12v4.73h6.43c-.28 1.5-1.11 2.77-2.36 3.62v3h3.81c2.23-2.05 3.51-5.08 3.51-8.85z" fill="#4285F4"/>
  <path d="M12 24c3.24 0 5.96-1.08 7.95-2.93l-3.81-3c-1.06.72-2.42 1.15-4.14 1.15-3.17 0-5.86-2.14-6.82-5.02H1.24v3.16C3.21 20.91 7.28 24 12 24z" fill="#34A853"/>
  <path d="M5.18 14.2c-.24-.7-.38-1.45-.38-2.2s.14-1.5.38-2.2V6.64H1.24C.45 8.36 0 10.13 0 12s.45 3.64 1.24 5.36l3.94-3.16z" fill="#FBBC05"/>
  <path d="M12 4.77c1.76 0 3.34.6 4.58 1.78l3.43-3.43C17.95 1.12 15.23 0 12 0 7.28 0 3.21 3.09 1.24 6.64l3.94 3.16C6.14 6.91 8.83 4.77 12 4.77z" fill="#EA4335"/>
</svg>
